
      <svg data-logo="logo" xmlns="http://www.w3.org/2000/svg" viewBox="0 0 164 41">
        <g id="logogram" transform="translate(0, 20.5) rotate(0) "></g>
        <g id="logotype" transform="translate(0, 1)"><path fill="#000000" d="M7.41 32L2.48 32L2.48 8.38L7.41 8.38L7.41 17.59L19.02 17.59L19.02 8.38L23.95 8.38L23.95 32L19.02 32L19.02 21.91L7.41 21.91L7.41 32ZM32.96 32.32L32.96 32.32Q29.87 32.32 28.12 30.82Q26.37 29.32 26.37 26.87L26.37 26.87Q26.37 24.27 28.18 22.87Q29.98 21.47 33.37 21.47L33.37 21.47L38.38 21.47L38.38 20.80Q38.38 17.97 35 17.97L35 17.97Q32.05 17.97 31.44 20.01L31.44 20.01L26.63 20.01Q27.21 17.13 29.34 15.64Q31.47 14.15 35 14.15L35 14.15Q38.91 14.15 40.96 15.90Q43.02 17.65 43.02 21.00L43.02 21.00L43.02 27.22L45.30 27.22L45.30 32L40.40 32L40.40 29.14L39.17 29.14Q38.27 30.66 36.75 31.49Q35.23 32.32 32.96 32.32ZM33.69 28.65L33.69 28.65Q35.06 28.65 36.11 28.15Q37.16 27.65 37.77 26.82Q38.38 25.99 38.38 24.94L38.38 24.94L38.38 24.68L33.60 24.68Q30.98 24.68 30.98 26.63L30.98 26.63Q30.98 27.60 31.70 28.12Q32.43 28.65 33.69 28.65ZM52.65 32L47.89 32L47.89 19.28L45.50 19.28L45.50 14.50L50.40 14.50L50.40 17.94L51.62 17.94Q52.32 16.10 53.84 15.20Q55.36 14.30 57.25 14.30L57.25 14.30L58.74 14.30L58.74 18.50L57.05 18.50Q54.77 18.50 53.71 19.78Q52.65 21.06 52.65 23.16L52.65 23.16L52.65 32ZM66.41 32L61.57 32L61.57 19.28L59.18 19.28L59.18 14.50L64.08 14.50L64.08 17.36L65.36 17.36Q66.30 15.84 67.78 15.01Q69.27 14.18 71.46 14.18L71.46 14.18Q73.56 14.18 75.06 14.92Q76.56 15.67 77.47 17.13L77.47 17.13L77.58 17.13Q79.60 14.18 83.56 14.18L83.56 14.18Q86.95 14.18 88.93 16.15Q90.91 18.12 90.91 21.47L90.91 21.47L90.91 32L86.07 32L86.07 22.40Q86.07 18.50 82.37 18.50L82.37 18.50Q78.66 18.50 78.66 22.40L78.66 22.40L78.66 32L73.82 32L73.82 22.40Q73.82 18.50 70.06 18.50L70.06 18.50Q68.25 18.50 67.33 19.46Q66.41 20.42 66.41 22.40L66.41 22.40L66.41 32ZM102.03 32.35L102.03 32.35Q99.17 32.35 97.05 31.23Q94.94 30.10 93.77 28.06Q92.60 26.02 92.60 23.22L92.60 23.22Q92.60 20.45 93.76 18.41Q94.91 16.37 97.04 15.26Q99.17 14.15 102.05 14.15L102.05 14.15Q104.91 14.15 107.01 15.26Q109.11 16.37 110.25 18.41Q111.39 20.45 111.39 23.25L111.39 23.25Q111.39 26.02 110.25 28.08Q109.11 30.13 107.00 31.24Q104.88 32.35 102.03 32.35ZM102.03 28.15L102.03 28.15Q104.21 28.15 105.38 26.82Q106.55 25.50 106.55 23.22L106.55 23.22Q106.55 20.95 105.38 19.65Q104.21 18.35 102.03 18.35L102.03 18.35Q99.81 18.35 98.63 19.65Q97.45 20.95 97.45 23.22L97.45 23.22Q97.45 25.50 98.63 26.82Q99.81 28.15 102.03 28.15ZM119.32 32L114.48 32L114.48 19.28L112.09 19.28L112.09 14.50L116.99 14.50L116.99 17.36L118.21 17.36Q119.23 15.84 120.78 15.01Q122.33 14.18 124.63 14.18L124.63 14.18Q128.28 14.18 130.27 16.18Q132.27 18.17 132.27 21.53L132.27 21.53L132.27 32L127.43 32L127.43 22.43Q127.43 20.51 126.39 19.50Q125.36 18.50 123.38 18.50L123.38 18.50Q121.39 18.50 120.36 19.50Q119.32 20.51 119.32 22.43L119.32 22.43L119.32 32ZM139.85 32L135.01 32L135.01 14.50L139.85 14.50L139.85 32ZM137.43 12.78L137.43 12.78Q136.32 12.78 135.55 12.01Q134.78 11.23 134.78 10.13L134.78 10.13Q134.78 9.02 135.55 8.24Q136.32 7.47 137.43 7.47L137.43 7.47Q138.54 7.47 139.31 8.24Q140.09 9.02 140.09 10.13L140.09 10.13Q140.09 11.23 139.31 12.01Q138.54 12.78 137.43 12.78ZM160.15 39L155.31 39L155.31 29.61L155.20 29.61Q154.44 30.92 153.05 31.64Q151.67 32.35 149.74 32.35L149.74 32.35Q147.23 32.35 145.44 31.23Q143.65 30.10 142.71 28.05Q141.78 25.99 141.78 23.25L141.78 23.25Q141.78 20.51 142.74 18.47Q143.70 16.42 145.59 15.29Q147.47 14.15 150.15 14.15L150.15 14.15Q152.37 14.15 153.93 15.00Q155.49 15.84 156.42 17.36L156.42 17.36L157.65 17.36L157.65 14.50L162.55 14.50L162.55 19.28L160.15 19.28L160.15 39ZM151.05 28.15L151.05 28.15Q153.01 28.15 154.16 27.06Q155.31 25.96 155.31 24.04L155.31 24.04L155.31 22.46Q155.31 20.54 154.16 19.44Q153.01 18.35 151.05 18.35L151.05 18.35Q148.84 18.35 147.73 19.66Q146.62 20.98 146.62 23.25L146.62 23.25Q146.62 25.52 147.73 26.84Q148.84 28.15 151.05 28.15Z"/></g>
        
      </svg>
    